<?xml version="1.0" standalone="no"?>
<!DOCTYPE svg PUBLIC "-//W3C//DTD SVG 20010904//EN"
 "http://www.w3.org/TR/2001/REC-SVG-20010904/DTD/svg10.dtd">
<svg version="1.0" xmlns="http://www.w3.org/2000/svg"
 width="1431.000000pt" height="859.000000pt" viewBox="0 0 1431.000000 859.000000"
 preserveAspectRatio="xMidYMid meet">
<metadata>
Created by potrace 1.15, written by Peter Selinger 2001-2017
</metadata>
<g transform="translate(0.000000,859.000000) scale(0.100000,-0.100000)"
fill="#000000" stroke="none">
<path d="M5660 8190 l0 -90 40 0 c27 0 47 7 60 20 24 24 25 38 4 61 -11 12
-13 23 -6 36 20 38 -4 63 -60 63 l-38 0 0 -90z"/>
<path d="M13799 7037 c-6 -23 -47 -172 -90 -332 -44 -159 -87 -317 -96 -350
-9 -33 -67 -188 -130 -345 -111 -279 -116 -289 -226 -454 l-112 -170 -113 -40
c-112 -39 -115 -41 -222 -138 l-109 -99 -110 55 -109 55 -108 -254 c-60 -140
-111 -255 -114 -255 -3 0 -56 138 -118 308 -97 265 -145 415 -296 913 l-27 87
-117 42 -117 42 -104 115 c-71 78 -107 110 -111 101 -7 -12 -38 -140 -164
-688 l-52 -225 -45 -23 c-24 -12 -75 -37 -112 -55 l-68 -32 -105 -225 c-58
-124 -155 -340 -216 -480 -60 -140 -115 -260 -121 -267 -7 -6 -60 -33 -120
-58 -107 -47 -107 -47 -216 -165 -59 -65 -157 -180 -217 -256 -108 -138 -109
-139 -225 -399 -77 -173 -148 -315 -214 -425 -53 -91 -103 -171 -109 -178 -10
-10 -33 -7 -116 12 l-105 24 -112 -111 -111 -110 -114 6 c-92 6 -134 3 -223
-14 l-110 -20 -110 -109 c-83 -82 -141 -128 -235 -188 -274 -173 -468 -260
-654 -293 -66 -12 -168 -39 -225 -61 -281 -104 -509 -164 -696 -183 -82 -9
-175 -20 -205 -26 -30 -5 -266 -14 -525 -19 -258 -5 -533 -14 -610 -19 -77 -5
-221 -15 -320 -21 -152 -10 -218 -20 -425 -65 -215 -46 -296 -60 -489 -80 -24
-3 -334 -12 -689 -20 -355 -9 -648 -18 -651 -21 -6 -5 990 4 1238 11 185 6
270 17 592 74 123 21 276 42 339 46 63 3 144 10 181 15 159 23 335 32 784 40
331 6 513 13 585 24 58 8 157 17 220 21 124 7 233 27 432 81 143 39 284 66
457 89 295 38 628 236 891 528 l105 117 195 -6 c107 -3 209 -6 227 -7 28 -2
45 11 142 106 l110 108 93 -21 c51 -12 101 -24 110 -26 31 -9 221 329 348 618
l111 250 112 137 c62 75 160 182 218 239 l106 103 113 19 c62 11 116 23 120
27 4 5 53 116 110 248 137 319 319 717 333 731 7 6 58 25 114 43 70 21 103 37
107 49 3 9 48 202 101 427 53 226 100 427 106 447 l10 37 111 -120 c108 -117
114 -121 226 -177 l116 -57 112 -405 c88 -317 135 -464 214 -675 56 -148 105
-273 109 -278 4 -4 54 65 111 154 58 89 113 164 125 169 11 4 61 12 111 19 50
6 140 27 200 46 91 28 250 55 329 55 8 0 62 57 122 128 90 105 128 161 220
324 l112 196 107 389 c59 213 110 391 113 395 3 3 54 -13 114 -37 l107 -43 0
378 0 378 -110 70 -109 71 -12 -42z"/>
<path d="M13918 4209 l-105 -81 -108 -202 c-75 -140 -142 -248 -221 -356
l-113 -155 -223 -89 c-198 -79 -236 -91 -336 -105 l-114 -15 -100 -109 c-56
-59 -108 -112 -117 -116 -9 -5 -63 -12 -121 -16 l-105 -7 -110 126 -109 126
-106 254 c-58 140 -108 257 -112 261 -4 4 -58 -20 -120 -52 -90 -48 -135 -65
-219 -83 l-106 -22 -108 -237 c-59 -130 -109 -238 -111 -240 -2 -2 -51 13
-108 34 -58 20 -110 35 -115 33 -6 -1 -57 -42 -114 -90 -92 -78 -115 -105
-212 -248 l-110 -160 -40 1 c-22 0 -75 4 -118 8 l-78 7 -92 -60 c-126 -81
-141 -86 -250 -86 l-93 0 -112 -158 c-97 -137 -125 -170 -219 -250 l-108 -93
-114 2 -113 2 -96 -74 c-53 -41 -105 -79 -116 -85 -12 -6 -71 -17 -131 -24
-101 -12 -120 -11 -218 7 l-106 20 -91 -59 c-127 -81 -131 -83 -265 -106 -233
-41 -352 -54 -580 -62 -248 -9 -496 -25 -640 -40 -397 -44 -611 -54 -1003 -46
-197 4 -406 12 -467 18 -159 15 -475 0 -1110 -54 -221 -19 -354 -22 -1160 -28
-500 -3 1737 -7 4973 -8 l5882 -2 0 1400 c0 770 -2 1400 -4 1400 -2 0 -51 -37
-108 -81z"/>
</g>
</svg>
