<?xml version="1.0" encoding="utf-8" standalone="no"?>
<!DOCTYPE svg PUBLIC "-//W3C//DTD SVG 1.1//EN"
  "http://www.w3.org/Graphics/SVG/1.1/DTD/svg11.dtd">
<!-- Created with matplotlib (https://matplotlib.org/) -->
<svg height="360pt" version="1.1" viewBox="0 0 720 360" width="720pt" xmlns="http://www.w3.org/2000/svg" xmlns:xlink="http://www.w3.org/1999/xlink">
 <defs>
  <style type="text/css">
*{stroke-linecap:butt;stroke-linejoin:round;}
  </style>
 </defs>
 <g id="figure_1">
  <g id="patch_1">
   <path d="M 0 360 
L 720 360 
L 720 0 
L 0 0 
z
"/>
  </g>
  <g id="axes_1">
   <g id="patch_2">
    <path d="M 90 288 
L 648 288 
L 648 43.2 
L 90 43.2 
z
"/>
   </g>
   <g id="matplotlib.axis_1">
    <g id="xtick_1">
     <g id="line2d_1">
      <defs>
       <path d="M 0 0 
L 0 3.5 
" id="m72a83d9d7d" style="stroke:#ffffff;stroke-width:0.8;"/>
      </defs>
      <g>
       <use style="fill:#ffffff;stroke:#ffffff;stroke-width:0.8;" x="100.033643" xlink:href="#m72a83d9d7d" y="288"/>
      </g>
     </g>
     <g id="text_1">
      <!-- 2015-01 -->
      <defs>
       <path d="M 19.1875 8.296875 
L 53.609375 8.296875 
L 53.609375 0 
L 7.328125 0 
L 7.328125 8.296875 
Q 12.9375 14.109375 22.625 23.890625 
Q 32.328125 33.6875 34.8125 36.53125 
Q 39.546875 41.84375 41.421875 45.53125 
Q 43.3125 49.21875 43.3125 52.78125 
Q 43.3125 58.59375 39.234375 62.25 
Q 35.15625 65.921875 28.609375 65.921875 
Q 23.96875 65.921875 18.8125 64.3125 
Q 13.671875 62.703125 7.8125 59.421875 
L 7.8125 69.390625 
Q 13.765625 71.78125 18.9375 73 
Q 24.125 74.21875 28.421875 74.21875 
Q 39.75 74.21875 46.484375 68.546875 
Q 53.21875 62.890625 53.21875 53.421875 
Q 53.21875 48.921875 51.53125 44.890625 
Q 49.859375 40.875 45.40625 35.40625 
Q 44.1875 33.984375 37.640625 27.21875 
Q 31.109375 20.453125 19.1875 8.296875 
z
" id="DejaVuSans-50"/>
       <path d="M 31.78125 66.40625 
Q 24.171875 66.40625 20.328125 58.90625 
Q 16.5 51.421875 16.5 36.375 
Q 16.5 21.390625 20.328125 13.890625 
Q 24.171875 6.390625 31.78125 6.390625 
Q 39.453125 6.390625 43.28125 13.890625 
Q 47.125 21.390625 47.125 36.375 
Q 47.125 51.421875 43.28125 58.90625 
Q 39.453125 66.40625 31.78125 66.40625 
z
M 31.78125 74.21875 
Q 44.046875 74.21875 50.515625 64.515625 
Q 56.984375 54.828125 56.984375 36.375 
Q 56.984375 17.96875 50.515625 8.265625 
Q 44.046875 -1.421875 31.78125 -1.421875 
Q 19.53125 -1.421875 13.0625 8.265625 
Q 6.59375 17.96875 6.59375 36.375 
Q 6.59375 54.828125 13.0625 64.515625 
Q 19.53125 74.21875 31.78125 74.21875 
z
" id="DejaVuSans-48"/>
       <path d="M 12.40625 8.296875 
L 28.515625 8.296875 
L 28.515625 63.921875 
L 10.984375 60.40625 
L 10.984375 69.390625 
L 28.421875 72.90625 
L 38.28125 72.90625 
L 38.28125 8.296875 
L 54.390625 8.296875 
L 54.390625 0 
L 12.40625 0 
z
" id="DejaVuSans-49"/>
       <path d="M 10.796875 72.90625 
L 49.515625 72.90625 
L 49.515625 64.59375 
L 19.828125 64.59375 
L 19.828125 46.734375 
Q 21.96875 47.46875 24.109375 47.828125 
Q 26.265625 48.1875 28.421875 48.1875 
Q 40.625 48.1875 47.75 41.5 
Q 54.890625 34.8125 54.890625 23.390625 
Q 54.890625 11.625 47.5625 5.09375 
Q 40.234375 -1.421875 26.90625 -1.421875 
Q 22.3125 -1.421875 17.546875 -0.640625 
Q 12.796875 0.140625 7.71875 1.703125 
L 7.71875 11.625 
Q 12.109375 9.234375 16.796875 8.0625 
Q 21.484375 6.890625 26.703125 6.890625 
Q 35.15625 6.890625 40.078125 11.328125 
Q 45.015625 15.765625 45.015625 23.390625 
Q 45.015625 31 40.078125 35.4375 
Q 35.15625 39.890625 26.703125 39.890625 
Q 22.75 39.890625 18.8125 39.015625 
Q 14.890625 38.140625 10.796875 36.28125 
z
" id="DejaVuSans-53"/>
       <path d="M 4.890625 31.390625 
L 31.203125 31.390625 
L 31.203125 23.390625 
L 4.890625 23.390625 
z
" id="DejaVuSans-45"/>
      </defs>
      <g style="fill:#ffffff;" transform="translate(62.808822 322.471846)rotate(-30)scale(0.1 -0.1)">
       <use xlink:href="#DejaVuSans-50"/>
       <use x="63.623047" xlink:href="#DejaVuSans-48"/>
       <use x="127.246094" xlink:href="#DejaVuSans-49"/>
       <use x="190.869141" xlink:href="#DejaVuSans-53"/>
       <use x="254.492188" xlink:href="#DejaVuSans-45"/>
       <use x="290.576172" xlink:href="#DejaVuSans-48"/>
       <use x="354.199219" xlink:href="#DejaVuSans-49"/>
      </g>
     </g>
    </g>
    <g id="xtick_2">
     <g id="line2d_2">
      <g>
       <use style="fill:#ffffff;stroke:#ffffff;stroke-width:0.8;" x="158.617169" xlink:href="#m72a83d9d7d" y="288"/>
      </g>
     </g>
     <g id="text_2">
      <!-- 2015-07 -->
      <defs>
       <path d="M 8.203125 72.90625 
L 55.078125 72.90625 
L 55.078125 68.703125 
L 28.609375 0 
L 18.3125 0 
L 43.21875 64.59375 
L 8.203125 64.59375 
z
" id="DejaVuSans-55"/>
      </defs>
      <g style="fill:#ffffff;" transform="translate(121.392349 322.471846)rotate(-30)scale(0.1 -0.1)">
       <use xlink:href="#DejaVuSans-50"/>
       <use x="63.623047" xlink:href="#DejaVuSans-48"/>
       <use x="127.246094" xlink:href="#DejaVuSans-49"/>
       <use x="190.869141" xlink:href="#DejaVuSans-53"/>
       <use x="254.492188" xlink:href="#DejaVuSans-45"/>
       <use x="290.576172" xlink:href="#DejaVuSans-48"/>
       <use x="354.199219" xlink:href="#DejaVuSans-55"/>
      </g>
     </g>
    </g>
    <g id="xtick_3">
     <g id="line2d_3">
      <g>
       <use style="fill:#ffffff;stroke:#ffffff;stroke-width:0.8;" x="218.171694" xlink:href="#m72a83d9d7d" y="288"/>
      </g>
     </g>
     <g id="text_3">
      <!-- 2016-01 -->
      <defs>
       <path d="M 33.015625 40.375 
Q 26.375 40.375 22.484375 35.828125 
Q 18.609375 31.296875 18.609375 23.390625 
Q 18.609375 15.53125 22.484375 10.953125 
Q 26.375 6.390625 33.015625 6.390625 
Q 39.65625 6.390625 43.53125 10.953125 
Q 47.40625 15.53125 47.40625 23.390625 
Q 47.40625 31.296875 43.53125 35.828125 
Q 39.65625 40.375 33.015625 40.375 
z
M 52.59375 71.296875 
L 52.59375 62.3125 
Q 48.875 64.0625 45.09375 64.984375 
Q 41.3125 65.921875 37.59375 65.921875 
Q 27.828125 65.921875 22.671875 59.328125 
Q 17.53125 52.734375 16.796875 39.40625 
Q 19.671875 43.65625 24.015625 45.921875 
Q 28.375 48.1875 33.59375 48.1875 
Q 44.578125 48.1875 50.953125 41.515625 
Q 57.328125 34.859375 57.328125 23.390625 
Q 57.328125 12.15625 50.6875 5.359375 
Q 44.046875 -1.421875 33.015625 -1.421875 
Q 20.359375 -1.421875 13.671875 8.265625 
Q 6.984375 17.96875 6.984375 36.375 
Q 6.984375 53.65625 15.1875 63.9375 
Q 23.390625 74.21875 37.203125 74.21875 
Q 40.921875 74.21875 44.703125 73.484375 
Q 48.484375 72.75 52.59375 71.296875 
z
" id="DejaVuSans-54"/>
      </defs>
      <g style="fill:#ffffff;" transform="translate(180.946873 322.471846)rotate(-30)scale(0.1 -0.1)">
       <use xlink:href="#DejaVuSans-50"/>
       <use x="63.623047" xlink:href="#DejaVuSans-48"/>
       <use x="127.246094" xlink:href="#DejaVuSans-49"/>
       <use x="190.869141" xlink:href="#DejaVuSans-54"/>
       <use x="254.492188" xlink:href="#DejaVuSans-45"/>
       <use x="290.576172" xlink:href="#DejaVuSans-48"/>
       <use x="354.199219" xlink:href="#DejaVuSans-49"/>
      </g>
     </g>
    </g>
    <g id="xtick_4">
     <g id="line2d_4">
      <g>
       <use style="fill:#ffffff;stroke:#ffffff;stroke-width:0.8;" x="277.078886" xlink:href="#m72a83d9d7d" y="288"/>
      </g>
     </g>
     <g id="text_4">
      <!-- 2016-07 -->
      <g style="fill:#ffffff;" transform="translate(239.854065 322.471846)rotate(-30)scale(0.1 -0.1)">
       <use xlink:href="#DejaVuSans-50"/>
       <use x="63.623047" xlink:href="#DejaVuSans-48"/>
       <use x="127.246094" xlink:href="#DejaVuSans-49"/>
       <use x="190.869141" xlink:href="#DejaVuSans-54"/>
       <use x="254.492188" xlink:href="#DejaVuSans-45"/>
       <use x="290.576172" xlink:href="#DejaVuSans-48"/>
       <use x="354.199219" xlink:href="#DejaVuSans-55"/>
      </g>
     </g>
    </g>
    <g id="xtick_5">
     <g id="line2d_5">
      <g>
       <use style="fill:#ffffff;stroke:#ffffff;stroke-width:0.8;" x="336.633411" xlink:href="#m72a83d9d7d" y="288"/>
      </g>
     </g>
     <g id="text_5">
      <!-- 2017-01 -->
      <g style="fill:#ffffff;" transform="translate(299.40859 322.471846)rotate(-30)scale(0.1 -0.1)">
       <use xlink:href="#DejaVuSans-50"/>
       <use x="63.623047" xlink:href="#DejaVuSans-48"/>
       <use x="127.246094" xlink:href="#DejaVuSans-49"/>
       <use x="190.869141" xlink:href="#DejaVuSans-55"/>
       <use x="254.492188" xlink:href="#DejaVuSans-45"/>
       <use x="290.576172" xlink:href="#DejaVuSans-48"/>
       <use x="354.199219" xlink:href="#DejaVuSans-49"/>
      </g>
     </g>
    </g>
    <g id="xtick_6">
     <g id="line2d_6">
      <g>
       <use style="fill:#ffffff;stroke:#ffffff;stroke-width:0.8;" x="395.216937" xlink:href="#m72a83d9d7d" y="288"/>
      </g>
     </g>
     <g id="text_6">
      <!-- 2017-07 -->
      <g style="fill:#ffffff;" transform="translate(357.992117 322.471846)rotate(-30)scale(0.1 -0.1)">
       <use xlink:href="#DejaVuSans-50"/>
       <use x="63.623047" xlink:href="#DejaVuSans-48"/>
       <use x="127.246094" xlink:href="#DejaVuSans-49"/>
       <use x="190.869141" xlink:href="#DejaVuSans-55"/>
       <use x="254.492188" xlink:href="#DejaVuSans-45"/>
       <use x="290.576172" xlink:href="#DejaVuSans-48"/>
       <use x="354.199219" xlink:href="#DejaVuSans-55"/>
      </g>
     </g>
    </g>
    <g id="xtick_7">
     <g id="line2d_7">
      <g>
       <use style="fill:#ffffff;stroke:#ffffff;stroke-width:0.8;" x="454.771462" xlink:href="#m72a83d9d7d" y="288"/>
      </g>
     </g>
     <g id="text_7">
      <!-- 2018-01 -->
      <defs>
       <path d="M 31.78125 34.625 
Q 24.75 34.625 20.71875 30.859375 
Q 16.703125 27.09375 16.703125 20.515625 
Q 16.703125 13.921875 20.71875 10.15625 
Q 24.75 6.390625 31.78125 6.390625 
Q 38.8125 6.390625 42.859375 10.171875 
Q 46.921875 13.96875 46.921875 20.515625 
Q 46.921875 27.09375 42.890625 30.859375 
Q 38.875 34.625 31.78125 34.625 
z
M 21.921875 38.8125 
Q 15.578125 40.375 12.03125 44.71875 
Q 8.5 49.078125 8.5 55.328125 
Q 8.5 64.0625 14.71875 69.140625 
Q 20.953125 74.21875 31.78125 74.21875 
Q 42.671875 74.21875 48.875 69.140625 
Q 55.078125 64.0625 55.078125 55.328125 
Q 55.078125 49.078125 51.53125 44.71875 
Q 48 40.375 41.703125 38.8125 
Q 48.828125 37.15625 52.796875 32.3125 
Q 56.78125 27.484375 56.78125 20.515625 
Q 56.78125 9.90625 50.3125 4.234375 
Q 43.84375 -1.421875 31.78125 -1.421875 
Q 19.734375 -1.421875 13.25 4.234375 
Q 6.78125 9.90625 6.78125 20.515625 
Q 6.78125 27.484375 10.78125 32.3125 
Q 14.796875 37.15625 21.921875 38.8125 
z
M 18.3125 54.390625 
Q 18.3125 48.734375 21.84375 45.5625 
Q 25.390625 42.390625 31.78125 42.390625 
Q 38.140625 42.390625 41.71875 45.5625 
Q 45.3125 48.734375 45.3125 54.390625 
Q 45.3125 60.0625 41.71875 63.234375 
Q 38.140625 66.40625 31.78125 66.40625 
Q 25.390625 66.40625 21.84375 63.234375 
Q 18.3125 60.0625 18.3125 54.390625 
z
" id="DejaVuSans-56"/>
      </defs>
      <g style="fill:#ffffff;" transform="translate(417.546641 322.471846)rotate(-30)scale(0.1 -0.1)">
       <use xlink:href="#DejaVuSans-50"/>
       <use x="63.623047" xlink:href="#DejaVuSans-48"/>
       <use x="127.246094" xlink:href="#DejaVuSans-49"/>
       <use x="190.869141" xlink:href="#DejaVuSans-56"/>
       <use x="254.492188" xlink:href="#DejaVuSans-45"/>
       <use x="290.576172" xlink:href="#DejaVuSans-48"/>
       <use x="354.199219" xlink:href="#DejaVuSans-49"/>
      </g>
     </g>
    </g>
    <g id="xtick_8">
     <g id="line2d_8">
      <g>
       <use style="fill:#ffffff;stroke:#ffffff;stroke-width:0.8;" x="513.354988" xlink:href="#m72a83d9d7d" y="288"/>
      </g>
     </g>
     <g id="text_8">
      <!-- 2018-07 -->
      <g style="fill:#ffffff;" transform="translate(476.130168 322.471846)rotate(-30)scale(0.1 -0.1)">
       <use xlink:href="#DejaVuSans-50"/>
       <use x="63.623047" xlink:href="#DejaVuSans-48"/>
       <use x="127.246094" xlink:href="#DejaVuSans-49"/>
       <use x="190.869141" xlink:href="#DejaVuSans-56"/>
       <use x="254.492188" xlink:href="#DejaVuSans-45"/>
       <use x="290.576172" xlink:href="#DejaVuSans-48"/>
       <use x="354.199219" xlink:href="#DejaVuSans-55"/>
      </g>
     </g>
    </g>
    <g id="xtick_9">
     <g id="line2d_9">
      <g>
       <use style="fill:#ffffff;stroke:#ffffff;stroke-width:0.8;" x="572.909513" xlink:href="#m72a83d9d7d" y="288"/>
      </g>
     </g>
     <g id="text_9">
      <!-- 2019-01 -->
      <defs>
       <path d="M 10.984375 1.515625 
L 10.984375 10.5 
Q 14.703125 8.734375 18.5 7.8125 
Q 22.3125 6.890625 25.984375 6.890625 
Q 35.75 6.890625 40.890625 13.453125 
Q 46.046875 20.015625 46.78125 33.40625 
Q 43.953125 29.203125 39.59375 26.953125 
Q 35.25 24.703125 29.984375 24.703125 
Q 19.046875 24.703125 12.671875 31.3125 
Q 6.296875 37.9375 6.296875 49.421875 
Q 6.296875 60.640625 12.9375 67.421875 
Q 19.578125 74.21875 30.609375 74.21875 
Q 43.265625 74.21875 49.921875 64.515625 
Q 56.59375 54.828125 56.59375 36.375 
Q 56.59375 19.140625 48.40625 8.859375 
Q 40.234375 -1.421875 26.421875 -1.421875 
Q 22.703125 -1.421875 18.890625 -0.6875 
Q 15.09375 0.046875 10.984375 1.515625 
z
M 30.609375 32.421875 
Q 37.25 32.421875 41.125 36.953125 
Q 45.015625 41.5 45.015625 49.421875 
Q 45.015625 57.28125 41.125 61.84375 
Q 37.25 66.40625 30.609375 66.40625 
Q 23.96875 66.40625 20.09375 61.84375 
Q 16.21875 57.28125 16.21875 49.421875 
Q 16.21875 41.5 20.09375 36.953125 
Q 23.96875 32.421875 30.609375 32.421875 
z
" id="DejaVuSans-57"/>
      </defs>
      <g style="fill:#ffffff;" transform="translate(535.684692 322.471846)rotate(-30)scale(0.1 -0.1)">
       <use xlink:href="#DejaVuSans-50"/>
       <use x="63.623047" xlink:href="#DejaVuSans-48"/>
       <use x="127.246094" xlink:href="#DejaVuSans-49"/>
       <use x="190.869141" xlink:href="#DejaVuSans-57"/>
       <use x="254.492188" xlink:href="#DejaVuSans-45"/>
       <use x="290.576172" xlink:href="#DejaVuSans-48"/>
       <use x="354.199219" xlink:href="#DejaVuSans-49"/>
      </g>
     </g>
    </g>
    <g id="xtick_10">
     <g id="line2d_10">
      <g>
       <use style="fill:#ffffff;stroke:#ffffff;stroke-width:0.8;" x="631.493039" xlink:href="#m72a83d9d7d" y="288"/>
      </g>
     </g>
     <g id="text_10">
      <!-- 2019-07 -->
      <g style="fill:#ffffff;" transform="translate(594.268219 322.471846)rotate(-30)scale(0.1 -0.1)">
       <use xlink:href="#DejaVuSans-50"/>
       <use x="63.623047" xlink:href="#DejaVuSans-48"/>
       <use x="127.246094" xlink:href="#DejaVuSans-49"/>
       <use x="190.869141" xlink:href="#DejaVuSans-57"/>
       <use x="254.492188" xlink:href="#DejaVuSans-45"/>
       <use x="290.576172" xlink:href="#DejaVuSans-48"/>
       <use x="354.199219" xlink:href="#DejaVuSans-55"/>
      </g>
     </g>
    </g>
    <g id="text_11">
     <!-- Date -->
     <defs>
      <path d="M 19.671875 64.796875 
L 19.671875 8.109375 
L 31.59375 8.109375 
Q 46.6875 8.109375 53.6875 14.9375 
Q 60.6875 21.78125 60.6875 36.53125 
Q 60.6875 51.171875 53.6875 57.984375 
Q 46.6875 64.796875 31.59375 64.796875 
z
M 9.8125 72.90625 
L 30.078125 72.90625 
Q 51.265625 72.90625 61.171875 64.09375 
Q 71.09375 55.28125 71.09375 36.53125 
Q 71.09375 17.671875 61.125 8.828125 
Q 51.171875 0 30.078125 0 
L 9.8125 0 
z
" id="DejaVuSans-68"/>
      <path d="M 34.28125 27.484375 
Q 23.390625 27.484375 19.1875 25 
Q 14.984375 22.515625 14.984375 16.5 
Q 14.984375 11.71875 18.140625 8.90625 
Q 21.296875 6.109375 26.703125 6.109375 
Q 34.1875 6.109375 38.703125 11.40625 
Q 43.21875 16.703125 43.21875 25.484375 
L 43.21875 27.484375 
z
M 52.203125 31.203125 
L 52.203125 0 
L 43.21875 0 
L 43.21875 8.296875 
Q 40.140625 3.328125 35.546875 0.953125 
Q 30.953125 -1.421875 24.3125 -1.421875 
Q 15.921875 -1.421875 10.953125 3.296875 
Q 6 8.015625 6 15.921875 
Q 6 25.140625 12.171875 29.828125 
Q 18.359375 34.515625 30.609375 34.515625 
L 43.21875 34.515625 
L 43.21875 35.40625 
Q 43.21875 41.609375 39.140625 45 
Q 35.0625 48.390625 27.6875 48.390625 
Q 23 48.390625 18.546875 47.265625 
Q 14.109375 46.140625 10.015625 43.890625 
L 10.015625 52.203125 
Q 14.9375 54.109375 19.578125 55.046875 
Q 24.21875 56 28.609375 56 
Q 40.484375 56 46.34375 49.84375 
Q 52.203125 43.703125 52.203125 31.203125 
z
" id="DejaVuSans-97"/>
      <path d="M 18.3125 70.21875 
L 18.3125 54.6875 
L 36.8125 54.6875 
L 36.8125 47.703125 
L 18.3125 47.703125 
L 18.3125 18.015625 
Q 18.3125 11.328125 20.140625 9.421875 
Q 21.96875 7.515625 27.59375 7.515625 
L 36.8125 7.515625 
L 36.8125 0 
L 27.59375 0 
Q 17.1875 0 13.234375 3.875 
Q 9.28125 7.765625 9.28125 18.015625 
L 9.28125 47.703125 
L 2.6875 47.703125 
L 2.6875 54.6875 
L 9.28125 54.6875 
L 9.28125 70.21875 
z
" id="DejaVuSans-116"/>
      <path d="M 56.203125 29.59375 
L 56.203125 25.203125 
L 14.890625 25.203125 
Q 15.484375 15.921875 20.484375 11.0625 
Q 25.484375 6.203125 34.421875 6.203125 
Q 39.59375 6.203125 44.453125 7.46875 
Q 49.3125 8.734375 54.109375 11.28125 
L 54.109375 2.78125 
Q 49.265625 0.734375 44.1875 -0.34375 
Q 39.109375 -1.421875 33.890625 -1.421875 
Q 20.796875 -1.421875 13.15625 6.1875 
Q 5.515625 13.8125 5.515625 26.8125 
Q 5.515625 40.234375 12.765625 48.109375 
Q 20.015625 56 32.328125 56 
Q 43.359375 56 49.78125 48.890625 
Q 56.203125 41.796875 56.203125 29.59375 
z
M 47.21875 32.234375 
Q 47.125 39.59375 43.09375 43.984375 
Q 39.0625 48.390625 32.421875 48.390625 
Q 24.90625 48.390625 20.390625 44.140625 
Q 15.875 39.890625 15.1875 32.171875 
z
" id="DejaVuSans-101"/>
     </defs>
     <g style="fill:#ffffff;" transform="translate(357.049219 335.871346)scale(0.1 -0.1)">
      <use xlink:href="#DejaVuSans-68"/>
      <use x="77.001953" xlink:href="#DejaVuSans-97"/>
      <use x="138.28125" xlink:href="#DejaVuSans-116"/>
      <use x="177.490234" xlink:href="#DejaVuSans-101"/>
     </g>
    </g>
   </g>
   <g id="matplotlib.axis_2">
    <g id="ytick_1">
     <g id="line2d_11">
      <defs>
       <path d="M 0 0 
L -3.5 0 
" id="m9f3988753b" style="stroke:#ffffff;stroke-width:0.8;"/>
      </defs>
      <g>
       <use style="fill:#ffffff;stroke:#ffffff;stroke-width:0.8;" x="90" xlink:href="#m9f3988753b" y="278.950482"/>
      </g>
     </g>
     <g id="text_12">
      <!-- 0 -->
      <g style="fill:#ffffff;" transform="translate(76.6375 282.7497)scale(0.1 -0.1)">
       <use xlink:href="#DejaVuSans-48"/>
      </g>
     </g>
    </g>
    <g id="ytick_2">
     <g id="line2d_12">
      <g>
       <use style="fill:#ffffff;stroke:#ffffff;stroke-width:0.8;" x="90" xlink:href="#m9f3988753b" y="250.720123"/>
      </g>
     </g>
     <g id="text_13">
      <!-- 2500 -->
      <g style="fill:#ffffff;" transform="translate(57.55 254.519341)scale(0.1 -0.1)">
       <use xlink:href="#DejaVuSans-50"/>
       <use x="63.623047" xlink:href="#DejaVuSans-53"/>
       <use x="127.246094" xlink:href="#DejaVuSans-48"/>
       <use x="190.869141" xlink:href="#DejaVuSans-48"/>
      </g>
     </g>
    </g>
    <g id="ytick_3">
     <g id="line2d_13">
      <g>
       <use style="fill:#ffffff;stroke:#ffffff;stroke-width:0.8;" x="90" xlink:href="#m9f3988753b" y="222.489763"/>
      </g>
     </g>
     <g id="text_14">
      <!-- 5000 -->
      <g style="fill:#ffffff;" transform="translate(57.55 226.288982)scale(0.1 -0.1)">
       <use xlink:href="#DejaVuSans-53"/>
       <use x="63.623047" xlink:href="#DejaVuSans-48"/>
       <use x="127.246094" xlink:href="#DejaVuSans-48"/>
       <use x="190.869141" xlink:href="#DejaVuSans-48"/>
      </g>
     </g>
    </g>
    <g id="ytick_4">
     <g id="line2d_14">
      <g>
       <use style="fill:#ffffff;stroke:#ffffff;stroke-width:0.8;" x="90" xlink:href="#m9f3988753b" y="194.259404"/>
      </g>
     </g>
     <g id="text_15">
      <!-- 7500 -->
      <g style="fill:#ffffff;" transform="translate(57.55 198.058623)scale(0.1 -0.1)">
       <use xlink:href="#DejaVuSans-55"/>
       <use x="63.623047" xlink:href="#DejaVuSans-53"/>
       <use x="127.246094" xlink:href="#DejaVuSans-48"/>
       <use x="190.869141" xlink:href="#DejaVuSans-48"/>
      </g>
     </g>
    </g>
    <g id="ytick_5">
     <g id="line2d_15">
      <g>
       <use style="fill:#ffffff;stroke:#ffffff;stroke-width:0.8;" x="90" xlink:href="#m9f3988753b" y="166.029045"/>
      </g>
     </g>
     <g id="text_16">
      <!-- 10000 -->
      <g style="fill:#ffffff;" transform="translate(51.1875 169.828264)scale(0.1 -0.1)">
       <use xlink:href="#DejaVuSans-49"/>
       <use x="63.623047" xlink:href="#DejaVuSans-48"/>
       <use x="127.246094" xlink:href="#DejaVuSans-48"/>
       <use x="190.869141" xlink:href="#DejaVuSans-48"/>
       <use x="254.492188" xlink:href="#DejaVuSans-48"/>
      </g>
     </g>
    </g>
    <g id="ytick_6">
     <g id="line2d_16">
      <g>
       <use style="fill:#ffffff;stroke:#ffffff;stroke-width:0.8;" x="90" xlink:href="#m9f3988753b" y="137.798686"/>
      </g>
     </g>
     <g id="text_17">
      <!-- 12500 -->
      <g style="fill:#ffffff;" transform="translate(51.1875 141.597905)scale(0.1 -0.1)">
       <use xlink:href="#DejaVuSans-49"/>
       <use x="63.623047" xlink:href="#DejaVuSans-50"/>
       <use x="127.246094" xlink:href="#DejaVuSans-53"/>
       <use x="190.869141" xlink:href="#DejaVuSans-48"/>
       <use x="254.492188" xlink:href="#DejaVuSans-48"/>
      </g>
     </g>
    </g>
    <g id="ytick_7">
     <g id="line2d_17">
      <g>
       <use style="fill:#ffffff;stroke:#ffffff;stroke-width:0.8;" x="90" xlink:href="#m9f3988753b" y="109.568327"/>
      </g>
     </g>
     <g id="text_18">
      <!-- 15000 -->
      <g style="fill:#ffffff;" transform="translate(51.1875 113.367545)scale(0.1 -0.1)">
       <use xlink:href="#DejaVuSans-49"/>
       <use x="63.623047" xlink:href="#DejaVuSans-53"/>
       <use x="127.246094" xlink:href="#DejaVuSans-48"/>
       <use x="190.869141" xlink:href="#DejaVuSans-48"/>
       <use x="254.492188" xlink:href="#DejaVuSans-48"/>
      </g>
     </g>
    </g>
    <g id="ytick_8">
     <g id="line2d_18">
      <g>
       <use style="fill:#ffffff;stroke:#ffffff;stroke-width:0.8;" x="90" xlink:href="#m9f3988753b" y="81.337967"/>
      </g>
     </g>
     <g id="text_19">
      <!-- 17500 -->
      <g style="fill:#ffffff;" transform="translate(51.1875 85.137186)scale(0.1 -0.1)">
       <use xlink:href="#DejaVuSans-49"/>
       <use x="63.623047" xlink:href="#DejaVuSans-55"/>
       <use x="127.246094" xlink:href="#DejaVuSans-53"/>
       <use x="190.869141" xlink:href="#DejaVuSans-48"/>
       <use x="254.492188" xlink:href="#DejaVuSans-48"/>
      </g>
     </g>
    </g>
    <g id="ytick_9">
     <g id="line2d_19">
      <g>
       <use style="fill:#ffffff;stroke:#ffffff;stroke-width:0.8;" x="90" xlink:href="#m9f3988753b" y="53.107608"/>
      </g>
     </g>
     <g id="text_20">
      <!-- 20000 -->
      <g style="fill:#ffffff;" transform="translate(51.1875 56.906827)scale(0.1 -0.1)">
       <use xlink:href="#DejaVuSans-50"/>
       <use x="63.623047" xlink:href="#DejaVuSans-48"/>
       <use x="127.246094" xlink:href="#DejaVuSans-48"/>
       <use x="190.869141" xlink:href="#DejaVuSans-48"/>
       <use x="254.492188" xlink:href="#DejaVuSans-48"/>
      </g>
     </g>
    </g>
   </g>
   <g id="line2d_20">
    <path clip-path="url(#pc1a25a72d0)" d="M 90 274.772389 
L 90.647332 274.682051 
L 92.589327 274.715928 
L 92.912993 274.456209 
L 93.236659 274.879664 
L 93.560325 274.670759 
L 93.883991 274.998231 
L 95.50232 274.998231 
L 96.149652 275.111153 
L 101.975638 275.111153 
L 102.299304 274.88531 
L 102.62297 275.687165 
L 103.917633 275.687165 
L 104.564965 276.421042 
L 104.888631 276.404103 
L 105.535963 276.872727 
L 105.859629 276.40399 
L 106.506961 276.40399 
L 106.830626 276.040158 
L 107.154292 276.296828 
L 107.801624 276.056757 
L 108.12529 275.306281 
L 108.448956 275.805958 
L 108.772622 275.946884 
L 109.096288 276.217783 
L 109.419954 276.188536 
L 110.067285 276.310491 
L 110.714617 276.196328 
L 111.038283 276.342109 
L 113.303944 276.425445 
L 113.62761 276.414153 
L 114.598608 275.925768 
L 114.922274 276.229075 
L 115.569606 276.172614 
L 118.158933 276.257757 
L 118.482599 276.025816 
L 119.12993 276.014863 
L 119.777262 275.681406 
L 121.395592 275.800312 
L 122.042923 275.568711 
L 124.632251 275.709072 
L 124.955916 275.937738 
L 126.574246 275.918428 
L 126.897912 276.127559 
L 127.86891 276.071098 
L 130.134571 276.052918 
L 130.781903 275.980648 
L 133.694896 276.418331 
L 134.342227 276.352385 
L 134.989559 276.390327 
L 144.052204 276.25787 
L 152.467517 276.338383 
L 153.438515 276.257305 
L 154.085847 276.020622 
L 155.056845 276.161435 
L 157.646172 276.104862 
L 158.617169 275.952982 
L 159.588167 276.003232 
L 159.911833 275.842319 
L 160.882831 275.856773 
L 161.206497 275.873373 
L 161.530162 275.622574 
L 161.853828 275.574131 
L 162.177494 275.376292 
L 162.50116 275.417057 
L 162.824826 275.587907 
L 165.090487 275.77434 
L 165.737819 275.791505 
L 166.061485 275.658596 
L 168.650812 275.725445 
L 169.298144 275.72251 
L 170.916473 275.786875 
L 171.240139 275.915153 
L 173.829466 275.996796 
L 174.476798 276.156467 
L 175.12413 276.274357 
L 178.037123 276.314105 
L 179.979118 276.335108 
L 180.302784 276.185939 
L 183.539443 276.330704 
L 184.510441 276.30462 
L 188.718097 276.247143 
L 192.925754 276.050998 
L 193.573086 275.847288 
L 194.867749 275.86942 
L 195.515081 275.77547 
L 196.809745 275.585536 
L 198.104408 275.175744 
L 198.428074 275.20149 
L 199.075406 274.181809 
L 199.399072 273.304523 
L 200.046404 274.490085 
L 201.341067 274.634286 
L 201.664733 275.091392 
L 202.312065 275.077276 
L 203.283063 275.177777 
L 203.930394 275.133737 
L 206.196056 275.223397 
L 206.519722 274.79294 
L 207.167053 274.88531 
L 207.814385 274.627059 
L 208.138051 274.671437 
L 208.461717 274.850756 
L 208.785383 274.772501 
L 209.109049 274.830543 
L 209.432715 274.546546 
L 209.756381 274.422219 
L 210.080046 274.461064 
L 210.727378 274.151321 
L 211.051044 274.213427 
L 211.37471 273.83819 
L 211.698376 273.650627 
L 212.022042 273.93869 
L 212.993039 273.702684 
L 213.316705 273.797538 
L 213.964037 273.69286 
L 214.287703 273.740287 
L 214.611369 273.931801 
L 215.258701 273.924236 
L 215.582367 273.756096 
L 216.229698 273.775405 
L 216.553364 274.096554 
L 219.790023 274.055789 
L 220.113689 273.771001 
L 220.437355 273.70641 
L 221.084687 273.852643 
L 222.055684 273.907749 
L 222.703016 274.087294 
L 223.026682 274.571275 
L 223.674014 274.590585 
L 223.99768 274.59736 
L 224.321346 274.150191 
L 224.645012 274.153805 
L 225.292343 274.448078 
L 225.616009 274.35537 
L 228.852668 274.738399 
L 229.176334 274.539432 
L 229.823666 274.608201 
L 230.794664 274.716718 
L 231.118329 274.621751 
L 231.765661 274.636883 
L 232.412993 274.382358 
L 234.031323 274.185197 
L 234.354988 273.936431 
L 234.678654 273.883697 
L 235.00232 273.993231 
L 235.325986 273.971776 
L 235.649652 274.144545 
L 236.944316 274.026317 
L 237.267981 273.959354 
L 238.562645 274.182826 
L 238.886311 274.33064 
L 240.50464 274.247078 
L 241.151972 274.193102 
L 241.799304 274.254757 
L 243.093968 274.221897 
L 243.417633 274.309411 
L 244.712297 274.219186 
L 245.683295 274.232963 
L 246.330626 274.147255 
L 250.861949 274.162613 
L 251.509281 274.101635 
L 252.480278 274.039641 
L 253.451276 274.002264 
L 255.716937 273.619348 
L 256.040603 273.634253 
L 256.364269 273.851966 
L 257.011601 273.762419 
L 258.62993 273.851401 
L 258.953596 273.713976 
L 262.837587 273.780035 
L 265.426914 273.812669 
L 265.75058 273.566952 
L 266.074246 272.858483 
L 266.397912 272.739916 
L 266.721578 272.841432 
L 267.36891 272.835786 
L 267.692575 272.839174 
L 268.016241 272.423623 
L 268.339907 272.235721 
L 268.663573 272.344578 
L 269.310905 272.277389 
L 269.958237 272.361516 
L 270.281903 272.389746 
L 270.605568 272.219009 
L 270.929234 271.184762 
L 271.2529 270.820138 
L 271.900232 271.090811 
L 272.223898 270.168807 
L 273.194896 270.23385 
L 273.518561 270.266936 
L 274.489559 271.747336 
L 274.813225 271.045981 
L 275.136891 271.057273 
L 275.784223 271.497893 
L 276.107889 271.457806 
L 276.431555 271.624929 
L 277.078886 271.170308 
L 277.726218 270.986697 
L 278.049884 271.230156 
L 279.020882 271.232979 
L 279.344548 271.423816 
L 282.257541 271.260645 
L 282.581206 271.216041 
L 283.552204 271.402813 
L 284.523202 271.425736 
L 286.788863 271.531543 
L 287.759861 272.446207 
L 288.083527 272.17576 
L 288.730858 272.276938 
L 289.054524 272.19044 
L 289.701856 272.242497 
L 290.349188 272.175308 
L 290.99652 272.293763 
L 292.938515 272.435028 
L 293.909513 272.322106 
L 295.527842 272.407249 
L 296.175174 272.426672 
L 297.469838 272.423961 
L 298.117169 271.981761 
L 298.764501 272.030656 
L 300.059165 271.875502 
L 300.382831 271.835189 
L 300.706497 272.068485 
L 303.61949 272.063177 
L 303.943155 272.191682 
L 305.237819 272.084971 
L 306.532483 272.088811 
L 306.856148 271.981084 
L 308.798144 271.964032 
L 309.769142 271.958386 
L 310.092807 271.680261 
L 310.416473 271.644126 
L 311.063805 271.723623 
L 312.682135 271.757499 
L 313.0058 271.836544 
L 313.329466 271.797925 
L 313.653132 271.520251 
L 314.62413 271.525897 
L 315.271462 271.136205 
L 315.595128 271.131689 
L 315.918794 270.756451 
L 316.566125 270.936673 
L 316.889791 270.622526 
L 317.213457 270.64511 
L 317.537123 270.524736 
L 317.860789 270.951918 
L 318.184455 270.955757 
L 318.508121 270.822058 
L 319.155452 270.860225 
L 319.479118 270.512314 
L 319.802784 270.779374 
L 321.097448 270.949207 
L 321.421114 270.861919 
L 321.74478 270.551385 
L 322.392111 270.470082 
L 323.039443 270.438351 
L 323.363109 270.611572 
L 323.686775 270.495263 
L 326.276102 270.537835 
L 326.599768 270.426042 
L 326.923434 270.14261 
L 327.570766 270.258241 
L 328.541763 270.267952 
L 330.483759 270.026301 
L 331.13109 270.14261 
L 332.74942 269.939351 
L 333.396752 269.061387 
L 333.720418 268.584294 
L 334.044084 268.578648 
L 334.367749 268.820413 
L 334.691415 268.694505 
L 335.338747 267.8625 
L 335.662413 267.783907 
L 336.309745 267.979825 
L 336.957077 267.270001 
L 337.280742 267.244029 
L 337.604408 265.998393 
L 337.928074 265.682213 
L 338.575406 268.674631 
L 338.899072 268.180035 
L 339.222738 268.521284 
L 339.546404 268.617041 
L 339.87007 268.516767 
L 340.193735 269.465081 
L 340.517401 269.521429 
L 340.841067 269.380164 
L 341.164733 269.544691 
L 341.488399 269.465081 
L 341.812065 268.685923 
L 342.135731 268.598974 
L 342.783063 268.735721 
L 343.430394 268.265291 
L 344.401392 268.74261 
L 344.725058 268.53969 
L 346.019722 268.517106 
L 346.343387 267.9831 
L 347.638051 267.160129 
L 348.285383 267.345546 
L 348.609049 267.000458 
L 349.256381 266.766259 
L 349.580046 267.568001 
L 349.903712 267.388569 
L 350.87471 267.444126 
L 351.198376 267.477664 
L 351.845708 266.928866 
L 352.169374 266.824978 
L 352.493039 266.892957 
L 353.464037 266.077438 
L 353.787703 265.433786 
L 354.111369 265.152273 
L 354.435035 265.51859 
L 354.758701 265.542981 
L 355.729698 265.061145 
L 356.053364 264.286391 
L 357.671694 264.406201 
L 358.319026 265.231092 
L 358.642691 263.593166 
L 358.966357 265.185359 
L 359.290023 264.903055 
L 360.261021 264.671001 
L 360.584687 264.527365 
L 361.232019 266.574292 
L 361.555684 266.947836 
L 361.87935 267.071485 
L 362.203016 266.303281 
L 362.526682 266.360193 
L 362.850348 267.010056 
L 363.174014 267.316186 
L 363.49768 267.952047 
L 364.468677 266.874776 
L 365.116009 267.060532 
L 365.439675 266.591343 
L 366.087007 266.314573 
L 366.410673 265.753128 
L 366.734339 265.804846 
L 367.058005 266.02109 
L 367.381671 265.321203 
L 368.029002 265.422494 
L 368.352668 265.162774 
L 368.676334 265.176551 
L 369 265.015976 
L 369.647332 265.179825 
L 369.970998 265.434689 
L 370.618329 265.513621 
L 371.589327 265.226914 
L 372.236659 264.73627 
L 372.883991 264.790134 
L 373.207657 264.709282 
L 373.854988 264.044852 
L 374.178654 263.593166 
L 374.50232 263.355918 
L 374.825986 263.485891 
L 375.149652 263.203474 
L 375.473318 262.388408 
L 375.796984 262.092102 
L 376.12065 261.639625 
L 376.444316 260.149062 
L 377.091647 260.895586 
L 377.415313 260.676293 
L 378.062645 258.684471 
L 378.386311 258.624736 
L 378.709977 257.619622 
L 379.357309 258.70412 
L 379.680974 258.297151 
L 380.328306 258.87576 
L 381.299304 256.592037 
L 381.62297 255.699958 
L 381.946636 255.206717 
L 382.270302 253.001136 
L 382.593968 253.170518 
L 382.917633 251.005927 
L 383.241299 247.264727 
L 383.564965 248.651628 
L 383.888631 252.376115 
L 384.212297 252.493102 
L 384.535963 252.325188 
L 384.859629 252.562097 
L 385.183295 252.539174 
L 385.506961 250.855628 
L 385.830626 250.95737 
L 386.154292 249.6022 
L 386.477958 250.086633 
L 386.801624 248.484278 
L 387.12529 245.767953 
L 387.448956 246.372647 
L 387.772622 247.233334 
L 388.096288 246.637109 
L 388.743619 245.085456 
L 389.067285 245.074164 
L 389.390951 247.343884 
L 389.714617 247.027592 
L 390.038283 250.437819 
L 390.361949 250.441771 
L 390.685615 248.696119 
L 391.009281 248.800458 
L 391.332947 249.624785 
L 391.656613 247.592763 
L 391.980278 247.540368 
L 392.303944 248.182891 
L 392.62761 247.976132 
L 392.951276 248.254257 
L 393.598608 249.998555 
L 393.922274 249.864743 
L 394.24594 249.534447 
L 394.569606 249.681471 
L 395.216937 250.55074 
L 395.864269 249.762775 
L 396.187935 249.183262 
L 396.835267 249.325091 
L 397.158933 249.504975 
L 397.482599 250.003071 
L 397.806265 249.818558 
L 398.12993 250.460403 
L 398.453596 251.736415 
L 399.100928 251.659742 
L 399.424594 252.422074 
L 399.74826 253.827495 
L 400.071926 255.870018 
L 400.719258 251.923526 
L 401.042923 251.894505 
L 401.366589 245.559613 
L 401.690255 246.429108 
L 402.013921 246.543384 
L 402.337587 246.790457 
L 402.661253 247.341513 
L 402.984919 247.530769 
L 403.308585 249.432818 
L 403.632251 248.617525 
L 403.955916 247.048934 
L 404.279582 247.434222 
L 404.603248 248.010234 
L 404.926914 246.203265 
L 405.25058 245.920961 
L 405.574246 247.806072 
L 405.897912 247.343772 
L 406.221578 246.454064 
L 406.545244 241.291183 
L 406.86891 241.930092 
L 407.192575 240.376519 
L 407.516241 239.552192 
L 407.839907 240.237738 
L 408.163573 240.01517 
L 409.134571 231.523478 
L 409.781903 228.876374 
L 410.105568 229.428786 
L 410.429234 228.485892 
L 410.7529 229.829657 
L 411.076566 231.680439 
L 411.400232 231.634028 
L 411.723898 232.765727 
L 412.047564 232.144546 
L 413.018561 228.656403 
L 413.342227 229.554241 
L 413.665893 229.355387 
L 413.989559 229.310218 
L 414.313225 226.364888 
L 414.636891 226.609024 
L 415.284223 223.076955 
L 415.607889 222.715606 
L 415.931555 225.312912 
L 416.578886 227.967018 
L 416.902552 225.967744 
L 417.226218 226.267663 
L 417.549884 226.103362 
L 417.87355 228.701007 
L 418.197216 229.82977 
L 418.844548 229.543175 
L 419.491879 234.651402 
L 419.815545 234.973454 
L 420.139211 233.296571 
L 420.462877 235.577358 
L 420.786543 232.313928 
L 421.110209 232.367905 
L 421.433875 233.285053 
L 422.081206 236.404282 
L 422.404872 235.827027 
L 422.728538 236.160484 
L 423.052204 234.127785 
L 423.37587 234.233593 
L 423.699536 231.202894 
L 424.023202 230.733593 
L 424.346868 231.376793 
L 424.670534 229.758742 
L 424.9942 229.299039 
L 425.317865 228.474599 
L 425.641531 229.039771 
L 425.965197 229.89741 
L 426.288863 229.664904 
L 426.936195 228.706992 
L 427.259861 226.871115 
L 427.583527 223.896877 
L 427.907193 223.329334 
L 428.230858 223.958081 
L 428.87819 212.699475 
L 429.201856 213.006621 
L 429.525522 212.893361 
L 429.849188 213.622043 
L 430.172854 213.794926 
L 430.49652 215.714477 
L 430.820186 214.020656 
L 431.143852 210.475035 
L 431.467517 209.062275 
L 431.791183 210.268276 
L 432.114849 210.553742 
L 432.762181 213.851273 
L 433.085847 211.367002 
L 433.409513 211.220204 
L 433.733179 212.394587 
L 434.056845 207.855145 
L 434.38051 208.939191 
L 435.027842 202.34808 
L 435.351508 194.880472 
L 435.675174 194.824124 
L 435.99884 194.281988 
L 436.322506 192.791425 
L 436.969838 197.276213 
L 437.293503 189.765131 
L 437.617169 194.598056 
L 437.940835 195.953226 
L 438.588167 205.709638 
L 438.911833 201.695845 
L 439.235499 202.751096 
L 439.882831 188.778536 
L 440.206497 188.743192 
L 440.530162 190.329964 
L 441.177494 185.301911 
L 441.50116 184.378778 
L 441.824826 185.237207 
L 442.148492 185.508219 
L 442.472158 184.954678 
L 442.795824 179.630432 
L 443.11949 170.591071 
L 443.766821 166.142531 
L 444.090487 149.260212 
L 444.414153 156.430723 
L 444.737819 155.448306 
L 445.061485 153.607687 
L 445.385151 144.675601 
L 445.708817 147.397008 
L 446.032483 144.856276 
L 446.356148 116.124545 
L 446.679814 57.052519 
L 447.327146 92.641403 
L 447.650812 94.88854 
L 447.974478 81.417012 
L 448.298144 73.998187 
L 448.62181 76.82111 
L 448.945476 84.730127 
L 449.269142 76.832402 
L 449.592807 55.399913 
L 449.916473 54.327273 
L 450.240139 60.052277 
L 450.563805 63.28183 
L 450.887471 76.934031 
L 451.211137 82.867262 
L 451.534803 98.559051 
L 451.858469 95.328933 
L 452.182135 108.334434 
L 452.5058 112.120351 
L 452.829466 96.604946 
L 453.153132 92.743033 
L 453.476798 104.046468 
L 454.771462 122.113898 
L 455.095128 106.462987 
L 455.418794 105.051469 
L 455.742459 105.051469 
L 456.066125 84.974038 
L 456.389791 85.019206 
L 456.713457 85.68533 
L 457.684455 110.977812 
L 458.008121 109.907091 
L 458.331787 119.947726 
L 458.655452 115.214398 
L 458.979118 117.10188 
L 459.302784 118.003558 
L 459.62645 124.884313 
L 459.950116 139.39212 
L 460.273782 142.054695 
L 460.597448 143.738466 
L 460.921114 132.315785 
L 461.24478 134.83111 
L 461.568445 145.149871 
L 461.892111 150.558808 
L 462.215777 149.655437 
L 462.539443 146.945322 
L 462.863109 148.300379 
L 463.186775 149.157679 
L 463.510441 146.888861 
L 463.834107 148.300379 
L 464.157773 153.04308 
L 464.481439 162.641967 
L 464.805104 164.151726 
L 465.12877 176.304896 
L 465.452436 171.686409 
L 465.776102 173.368938 
L 466.099768 184.670567 
L 466.423434 189.190474 
L 466.7471 181.274794 
L 467.070766 181.555743 
L 467.394432 180.708832 
L 467.718097 176.304896 
L 468.041763 182.430997 
L 468.365429 177.885796 
L 468.689095 178.168099 
L 469.012761 171.872729 
L 469.336427 163.208155 
L 469.660093 162.554678 
L 469.983759 153.054372 
L 470.307425 151.359421 
L 470.63109 151.641612 
L 470.954756 145.98549 
L 471.925754 161.616414 
L 472.24942 160.449145 
L 472.573086 167.722867 
L 473.220418 156.486393 
L 473.544084 154.240047 
L 473.867749 153.889991 
L 474.191415 153.054372 
L 474.515081 149.152146 
L 474.838747 149.237627 
L 475.162413 147.445112 
L 475.486079 150.269391 
L 475.809745 155.933869 
L 476.457077 172.69141 
L 476.780742 171.517027 
L 477.104408 168.739159 
L 477.428074 167.271181 
L 477.75174 171.98136 
L 478.075406 173.48186 
L 478.399072 184.096475 
L 478.722738 181.838046 
L 479.046404 184.663115 
L 479.37007 185.194862 
L 480.017401 176.798814 
L 480.341067 175.356356 
L 480.664733 176.48636 
L 480.988399 178.136369 
L 481.312065 177.332481 
L 481.635731 181.047596 
L 481.959397 182.989845 
L 482.283063 186.129174 
L 482.930394 189.098895 
L 483.25406 196.796184 
L 483.577726 197.647047 
L 483.901392 199.403427 
L 484.225058 198.776262 
L 484.548724 194.033561 
L 484.87239 195.107331 
L 485.196056 200.773842 
L 485.519722 201.633174 
L 485.843387 199.23924 
L 486.167053 198.776375 
L 486.490719 197.991119 
L 486.814385 201.110461 
L 487.138051 200.199072 
L 487.461717 188.048725 
L 487.785383 186.129061 
L 488.109049 186.919511 
L 488.432715 184.180488 
L 488.756381 184.107993 
L 489.080046 186.778359 
L 489.727378 185.225689 
L 490.051044 178.082731 
L 490.37471 176.882263 
L 491.022042 177.422818 
L 491.345708 169.094184 
L 491.669374 168.69975 
L 491.993039 173.730287 
L 492.640371 172.352533 
L 492.964037 171.533965 
L 493.287703 172.273826 
L 493.611369 174.550435 
L 493.935035 174.497701 
L 494.258701 168.287474 
L 494.582367 168.921302 
L 494.906032 166.614881 
L 495.229698 167.384102 
L 495.553364 170.325141 
L 495.87703 172.091458 
L 496.200696 173.143096 
L 496.524362 172.958921 
L 497.171694 181.176665 
L 497.819026 178.676133 
L 498.142691 179.048887 
L 498.466357 182.967261 
L 498.790023 183.170406 
L 499.113689 185.45571 
L 499.437355 184.209396 
L 499.761021 181.874859 
L 500.084687 182.014317 
L 500.408353 184.096475 
L 501.055684 191.605863 
L 501.37935 192.431771 
L 501.703016 192.67331 
L 502.026682 195.471051 
L 502.350348 194.882731 
L 502.674014 193.977214 
L 502.99768 193.606944 
L 503.321346 193.028673 
L 503.645012 193.130303 
L 504.292343 191.13148 
L 504.616009 191.463808 
L 504.939675 192.255049 
L 505.263341 192.102605 
L 505.587007 191.470245 
L 505.910673 192.113897 
L 506.234339 192.231222 
L 506.558005 194.299943 
L 506.881671 200.87852 
L 507.205336 201.194587 
L 507.529002 204.208347 
L 507.852668 202.728625 
L 508.5 204.987054 
L 508.823666 204.760985 
L 509.147332 202.220365 
L 509.470998 201.835755 
L 509.794664 201.971938 
L 510.118329 202.310703 
L 510.441995 203.010816 
L 510.765661 208.374584 
L 511.089327 208.309089 
L 511.412993 207.358178 
L 511.736659 208.137449 
L 512.060325 209.216639 
L 512.383991 209.374277 
L 512.707657 207.809977 
L 513.031323 205.324011 
L 513.354988 206.40817 
L 513.678654 203.631996 
L 514.00232 203.586828 
L 514.325986 202.220478 
L 514.973318 203.98194 
L 515.296984 201.675407 
L 515.62065 202.408831 
L 515.944316 201.985263 
L 516.267981 203.524947 
L 516.591647 206.680762 
L 516.915313 206.793232 
L 517.238979 207.413735 
L 517.562645 207.542579 
L 517.886311 206.846192 
L 518.209977 202.728512 
L 518.533643 194.569938 
L 518.857309 193.301266 
L 519.180974 193.538852 
L 519.50464 192.147773 
L 519.828306 194.883069 
L 520.151972 193.472455 
L 520.475638 190.770132 
L 520.799304 183.102766 
L 521.12297 183.161034 
L 521.446636 185.338611 
L 521.770302 185.49049 
L 522.093968 186.016139 
L 522.417633 185.339062 
L 522.741299 185.508896 
L 523.064965 186.653355 
L 523.388631 191.436368 
L 523.712297 191.915833 
L 524.035963 193.824318 
L 524.359629 194.315865 
L 524.683295 198.92848 
L 525.006961 198.064857 
L 525.330626 198.18907 
L 525.654292 203.087376 
L 525.977958 204.047321 
L 526.301624 204.593974 
L 526.62529 209.052112 
L 526.948956 209.930528 
L 527.272622 205.043514 
L 527.596288 208.280633 
L 527.919954 204.015816 
L 528.243619 205.833739 
L 528.567285 204.58607 
L 528.890951 204.272938 
L 529.214617 205.016978 
L 529.538283 205.269244 
L 529.861949 205.664469 
L 530.185615 201.140272 
L 530.509281 204.779504 
L 530.832947 203.078568 
L 531.156613 202.276826 
L 531.480278 202.468793 
L 532.12761 198.460082 
L 532.451276 198.561711 
L 532.774942 199.356 
L 533.098608 198.883989 
L 533.422274 196.800137 
L 533.74594 196.197588 
L 534.069606 196.088731 
L 534.393271 195.360388 
L 534.716937 195.569293 
L 535.040603 203.250999 
L 535.364269 205.212784 
L 535.687935 206.003234 
L 536.011601 206.116155 
L 536.335267 206.961598 
L 536.658933 206.624301 
L 536.982599 207.347676 
L 537.306265 205.212784 
L 537.62993 204.648176 
L 537.953596 204.817559 
L 538.277262 205.305944 
L 538.600928 205.215607 
L 538.924594 206.860985 
L 539.24826 205.427334 
L 539.571926 205.212784 
L 539.895592 202.422495 
L 540.219258 201.904185 
L 540.866589 203.110638 
L 541.190255 204.624463 
L 541.513921 205.130803 
L 541.837587 202.900378 
L 542.161253 202.313751 
L 542.484919 204.196378 
L 542.808585 203.96647 
L 543.132251 203.978213 
L 543.455916 204.519785 
L 543.779582 205.461775 
L 544.103248 204.388344 
L 544.426914 203.959356 
L 544.75058 204.485682 
L 545.074246 204.591603 
L 545.397912 203.505524 
L 545.721578 204.277117 
L 546.045244 204.520349 
L 546.36891 205.274213 
L 546.692575 208.541707 
L 547.016241 208.803685 
L 547.339907 207.941417 
L 547.663573 202.050983 
L 547.987239 206.263179 
L 548.634571 205.666389 
L 548.958237 206.572245 
L 549.281903 206.454919 
L 549.605568 206.083747 
L 550.2529 206.550903 
L 550.576566 205.879133 
L 550.900232 206.432335 
L 551.223898 206.116155 
L 551.547564 206.435045 
L 552.194896 206.511493 
L 552.518561 207.93419 
L 552.842227 207.208783 
L 553.165893 207.132448 
L 553.489559 206.920494 
L 553.813225 207.226173 
L 554.136891 205.956371 
L 554.460557 206.229189 
L 554.784223 206.120107 
L 555.107889 205.099862 
L 555.431555 205.417397 
L 555.75522 206.51138 
L 556.078886 206.974358 
L 556.402552 207.132448 
L 556.726218 206.866066 
L 557.37355 207.884731 
L 557.697216 215.206331 
L 558.020882 215.602572 
L 558.344548 216.346837 
L 558.668213 214.980488 
L 558.991879 216.166163 
L 559.315545 223.743191 
L 559.639211 226.695522 
L 559.962877 227.130834 
L 560.286543 229.648418 
L 560.610209 229.595006 
L 560.933875 232.42685 
L 561.257541 232.920881 
L 561.581206 235.701571 
L 561.904872 229.660275 
L 562.228538 229.146256 
L 562.552204 230.420123 
L 563.199536 230.803378 
L 563.523202 232.427076 
L 563.846868 233.385553 
L 564.170534 234.769631 
L 564.4942 235.487021 
L 564.817865 238.919945 
L 565.141531 239.48444 
L 565.465197 237.818735 
L 565.788863 238.403669 
L 566.112529 240.275793 
L 566.436195 239.584262 
L 566.759861 240.109686 
L 567.083527 241.743998 
L 567.407193 242.49165 
L 567.730858 242.160678 
L 568.054524 238.457419 
L 568.37819 237.305056 
L 569.025522 231.805782 
L 569.349188 231.949531 
L 569.672854 233.725446 
L 569.99652 233.2173 
L 570.320186 231.078907 
L 570.967517 235.484762 
L 571.291183 235.574987 
L 571.614849 234.10283 
L 571.938515 234.410541 
L 572.262181 235.328253 
L 572.585847 235.640594 
L 572.909513 235.575438 
L 573.233179 234.724011 
L 573.556845 234.981133 
L 573.88051 235.487021 
L 574.204176 235.203362 
L 574.527842 232.788198 
L 574.851508 232.991457 
L 575.175174 232.485569 
L 575.49884 233.305379 
L 575.822506 233.384311 
L 576.146172 237.177906 
L 576.469838 237.743417 
L 576.793503 237.826075 
L 577.117169 237.044207 
L 577.764501 237.54524 
L 578.411833 237.805411 
L 578.735499 236.492247 
L 579.059165 237.13127 
L 579.382831 238.649386 
L 579.706497 238.168905 
L 580.030162 238.135367 
L 580.677494 238.538271 
L 581.00116 237.64653 
L 581.324826 238.717703 
L 581.648492 239.022365 
L 581.972158 240.123575 
L 582.61949 239.72835 
L 582.943155 239.899313 
L 583.266821 239.617235 
L 583.590487 239.746869 
L 583.914153 240.161968 
L 584.237819 240.224527 
L 584.561485 240.094215 
L 584.885151 240.747579 
L 585.208817 237.045337 
L 585.532483 237.823252 
L 585.856148 237.685827 
L 586.179814 237.711573 
L 586.50348 238.086811 
L 586.827146 237.982697 
L 587.150812 238.422978 
L 587.474478 238.070437 
L 587.798144 238.215654 
L 588.12181 237.451854 
L 588.445476 234.719155 
L 588.769142 234.125866 
L 589.092807 234.152402 
L 589.416473 233.917413 
L 589.740139 234.273906 
L 590.063805 232.019203 
L 590.387471 231.650063 
L 590.711137 235.362807 
L 591.034803 235.742562 
L 591.358469 235.779148 
L 591.682135 234.911234 
L 592.0058 235.554774 
L 592.329466 235.836174 
L 592.976798 235.983988 
L 593.300464 235.193651 
L 593.62413 234.97097 
L 593.947796 235.012751 
L 594.271462 234.788263 
L 594.595128 234.376664 
L 594.918794 234.719155 
L 595.242459 234.777535 
L 595.566125 235.189699 
L 595.889791 235.238368 
L 596.213457 234.911121 
L 596.537123 234.7982 
L 596.860789 233.35879 
L 597.184455 233.883536 
L 597.508121 233.60462 
L 597.831787 233.956032 
L 602.039443 232.093732 
L 602.363109 221.351741 
L 602.686775 218.593974 
L 603.010441 221.684182 
L 603.334107 221.73782 
L 603.657773 219.734029 
L 603.981439 219.437158 
L 604.305104 218.509283 
L 604.62877 219.248918 
L 604.952436 216.979197 
L 605.276102 218.619494 
L 605.599768 221.150967 
L 605.923434 221.097668 
L 606.2471 220.330818 
L 606.570766 220.310267 
L 607.541763 218.896829 
L 607.865429 218.430576 
L 608.189095 218.424817 
L 608.512761 218.546998 
L 608.836427 217.511735 
L 609.160093 215.149757 
L 609.483759 215.438158 
L 609.807425 216.706831 
L 610.13109 219.158242 
L 610.454756 219.991489 
L 610.778422 220.067599 
L 611.102088 220.34945 
L 611.74942 218.442772 
L 612.073086 217.7133 
L 612.396752 213.490715 
L 612.720418 212.926673 
L 613.044084 213.656823 
L 613.367749 213.979326 
L 613.691415 211.577374 
L 614.015081 211.310541 
L 614.338747 209.265534 
L 614.662413 206.341998 
L 614.986079 194.664453 
L 615.309745 193.335481 
L 615.633411 186.461614 
L 615.957077 184.661082 
L 616.280742 185.133545 
L 616.604408 184.231981 
L 617.25174 194.358549 
L 617.575406 185.056307 
L 618.222738 187.337433 
L 618.87007 188.783844 
L 619.193735 186.637207 
L 619.517401 186.930803 
L 619.841067 179.647709 
L 620.164733 177.909735 
L 620.488399 179.325996 
L 620.812065 180.026448 
L 621.135731 176.304896 
L 621.459397 182.063889 
L 621.783063 181.634788 
L 622.106729 179.195685 
L 622.430394 180.229142 
L 622.75406 187.394233 
L 623.077726 189.371374 
L 623.401392 190.028464 
L 623.725058 187.09691 
L 624.37239 189.065018 
L 624.696056 187.514042 
L 625.019722 187.967535 
L 625.343387 185.311171 
L 625.667053 184.887038 
L 625.990719 180.269342 
L 626.314385 178.262615 
L 626.638051 172.939837 
L 626.961717 171.95742 
L 627.285383 173.261889 
L 627.609049 173.713349 
L 627.932715 170.557195 
L 628.256381 163.26247 
L 628.580046 152.29904 
L 628.903712 151.524964 
L 629.227378 153.698363 
L 629.551044 145.828755 
L 629.87471 122.346065 
L 630.198376 128.102348 
L 630.522042 138.422351 
L 630.845708 139.153856 
L 631.169374 141.186329 
L 631.493039 152.359679 
L 631.816705 155.583812 
L 632.140371 143.279892 
L 632.464037 142.719125 
L 632.787703 149.66097 
L 633.111369 146.565906 
L 633.435035 147.735772 
L 633.758701 138.984361 
L 634.406032 129.864487 
L 634.729698 142.338579 
L 635.37703 145.19504 
L 636.024362 153.833417 
L 636.348028 154.285216 
L 636.671694 166.051629 
L 636.99536 168.288603 
L 637.319026 157.252678 
L 637.642691 153.468681 
L 637.966357 156.600105 
L 638.290023 158.258469 
L 638.937355 166.942805 
L 639.261021 163.940111 
L 639.584687 167.180505 
L 639.908353 163.223964 
L 640.232019 169.765502 
L 640.555684 169.079392 
L 640.87935 167.837708 
L 642.174014 155.616785 
L 642.49768 153.723544 
L 642.821346 144.009365 
L 643.145012 139.826755 
L 643.468677 141.784813 
L 643.792343 142.88015 
L 644.116009 142.993072 
L 644.439675 143.783635 
L 644.763341 148.130997 
L 645.087007 148.463551 
L 645.410673 149.786538 
L 646.058005 161.004041 
L 646.381671 159.932417 
L 646.705336 160.656017 
L 647.029002 160.231094 
L 647.352668 155.428432 
L 647.676334 155.267632 
L 648 156.99533 
L 648 156.99533 
" style="fill:none;stroke:#8dd3c7;stroke-linecap:square;stroke-width:1.5;"/>
   </g>
   <g id="line2d_21">
    <path clip-path="url(#pc1a25a72d0)" d="M 186.776102 275.950018 
L 200.046404 276.047291 
L 220.761021 275.688628 
L 267.36891 274.732422 
L 273.842227 274.426374 
L 292.938515 273.534611 
L 310.092807 273.070765 
L 323.363109 272.666084 
L 337.280742 271.989439 
L 341.488399 271.735109 
L 353.464037 270.948046 
L 368.029002 269.805503 
L 376.444316 269.218808 
L 381.62297 268.536226 
L 384.535963 267.939927 
L 387.772622 267.18002 
L 394.569606 265.488317 
L 406.545244 262.666795 
L 409.134571 261.769392 
L 422.728538 256.054952 
L 426.288863 254.602171 
L 428.554524 253.544169 
L 435.675174 249.241063 
L 442.148492 244.198669 
L 443.443155 242.965478 
L 445.061485 241.111472 
L 446.356148 239.395048 
L 447.327146 237.480038 
L 448.945476 234.398049 
L 452.829466 227.033894 
L 454.12413 224.905059 
L 455.742459 222.351254 
L 457.684455 218.945341 
L 459.62645 215.965744 
L 463.186775 211.448515 
L 464.805104 209.60438 
L 470.307425 204.431546 
L 472.573086 201.932816 
L 474.838747 199.437581 
L 476.133411 198.055736 
L 479.046404 195.584552 
L 483.901392 192.267214 
L 487.461717 190.462343 
L 491.022042 188.038674 
L 497.49536 182.803981 
L 499.113689 181.693876 
L 502.350348 179.737888 
L 505.263341 178.230298 
L 506.881671 177.595475 
L 511.412993 176.385452 
L 515.296984 175.553191 
L 518.857309 174.458005 
L 524.683295 171.99461 
L 525.977958 171.74758 
L 531.803944 171.343036 
L 533.422274 171.386156 
L 536.658933 171.51135 
L 540.219258 172.25609 
L 541.190255 172.677463 
L 543.132251 173.744365 
L 543.455916 174.039015 
L 544.426914 175.325393 
L 545.397912 176.53299 
L 547.016241 178.810677 
L 548.310905 180.607756 
L 551.223898 183.695665 
L 552.842227 185.289749 
L 554.460557 187.21436 
L 556.726218 189.307976 
L 559.315545 191.240393 
L 562.228538 193.497698 
L 563.846868 194.356087 
L 565.788863 195.515517 
L 567.083527 196.552263 
L 569.025522 198.248118 
L 571.614849 200.289567 
L 573.556845 201.856767 
L 575.822506 203.245835 
L 577.764501 204.399321 
L 580.030162 205.6716 
L 585.532483 208.140282 
L 588.445476 209.866092 
L 593.947796 213.441527 
L 597.831787 215.517419 
L 602.363109 215.748779 
L 608.836427 217.394345 
L 614.662413 217.981183 
L 616.280742 217.746177 
L 620.488399 217.061137 
L 622.106729 216.907258 
L 623.725058 216.928681 
L 625.343387 216.860841 
L 626.638051 216.587804 
L 628.256381 215.988087 
L 629.87471 214.98378 
L 631.169374 214.083027 
L 634.082367 212.425025 
L 635.053364 211.848779 
L 638.613689 210.124626 
L 642.174014 208.656774 
L 643.468677 207.872785 
L 645.734339 206.544773 
L 648 205.444775 
L 648 205.444775 
" style="fill:none;stroke:#feffb3;stroke-linecap:square;stroke-width:1.5;"/>
   </g>
   <g id="patch_3">
    <path d="M 90 288 
L 90 43.2 
" style="fill:none;stroke:#ffffff;stroke-linecap:square;stroke-linejoin:miter;stroke-width:0.8;"/>
   </g>
   <g id="patch_4">
    <path d="M 648 288 
L 648 43.2 
" style="fill:none;stroke:#ffffff;stroke-linecap:square;stroke-linejoin:miter;stroke-width:0.8;"/>
   </g>
   <g id="patch_5">
    <path d="M 90 288 
L 648 288 
" style="fill:none;stroke:#ffffff;stroke-linecap:square;stroke-linejoin:miter;stroke-width:0.8;"/>
   </g>
   <g id="patch_6">
    <path d="M 90 43.2 
L 648 43.2 
" style="fill:none;stroke:#ffffff;stroke-linecap:square;stroke-linejoin:miter;stroke-width:0.8;"/>
   </g>
   <g id="legend_1">
    <g id="patch_7">
     <path d="M 571.265625 80.55625 
L 641 80.55625 
Q 643 80.55625 643 78.55625 
L 643 50.2 
Q 643 48.2 641 48.2 
L 571.265625 48.2 
Q 569.265625 48.2 569.265625 50.2 
L 569.265625 78.55625 
Q 569.265625 80.55625 571.265625 80.55625 
z
" style="opacity:0.8;stroke:#cccccc;stroke-linejoin:miter;"/>
    </g>
    <g id="line2d_22">
     <path d="M 573.265625 56.298437 
L 593.265625 56.298437 
" style="fill:none;stroke:#8dd3c7;stroke-linecap:square;stroke-width:1.5;"/>
    </g>
    <g id="line2d_23"/>
    <g id="text_21">
     <!-- High -->
     <defs>
      <path d="M 9.8125 72.90625 
L 19.671875 72.90625 
L 19.671875 43.015625 
L 55.515625 43.015625 
L 55.515625 72.90625 
L 65.375 72.90625 
L 65.375 0 
L 55.515625 0 
L 55.515625 34.71875 
L 19.671875 34.71875 
L 19.671875 0 
L 9.8125 0 
z
" id="DejaVuSans-72"/>
      <path d="M 9.421875 54.6875 
L 18.40625 54.6875 
L 18.40625 0 
L 9.421875 0 
z
M 9.421875 75.984375 
L 18.40625 75.984375 
L 18.40625 64.59375 
L 9.421875 64.59375 
z
" id="DejaVuSans-105"/>
      <path d="M 45.40625 27.984375 
Q 45.40625 37.75 41.375 43.109375 
Q 37.359375 48.484375 30.078125 48.484375 
Q 22.859375 48.484375 18.828125 43.109375 
Q 14.796875 37.75 14.796875 27.984375 
Q 14.796875 18.265625 18.828125 12.890625 
Q 22.859375 7.515625 30.078125 7.515625 
Q 37.359375 7.515625 41.375 12.890625 
Q 45.40625 18.265625 45.40625 27.984375 
z
M 54.390625 6.78125 
Q 54.390625 -7.171875 48.1875 -13.984375 
Q 42 -20.796875 29.203125 -20.796875 
Q 24.46875 -20.796875 20.265625 -20.09375 
Q 16.0625 -19.390625 12.109375 -17.921875 
L 12.109375 -9.1875 
Q 16.0625 -11.328125 19.921875 -12.34375 
Q 23.78125 -13.375 27.78125 -13.375 
Q 36.625 -13.375 41.015625 -8.765625 
Q 45.40625 -4.15625 45.40625 5.171875 
L 45.40625 9.625 
Q 42.625 4.78125 38.28125 2.390625 
Q 33.9375 0 27.875 0 
Q 17.828125 0 11.671875 7.65625 
Q 5.515625 15.328125 5.515625 27.984375 
Q 5.515625 40.671875 11.671875 48.328125 
Q 17.828125 56 27.875 56 
Q 33.9375 56 38.28125 53.609375 
Q 42.625 51.21875 45.40625 46.390625 
L 45.40625 54.6875 
L 54.390625 54.6875 
z
" id="DejaVuSans-103"/>
      <path d="M 54.890625 33.015625 
L 54.890625 0 
L 45.90625 0 
L 45.90625 32.71875 
Q 45.90625 40.484375 42.875 44.328125 
Q 39.84375 48.1875 33.796875 48.1875 
Q 26.515625 48.1875 22.3125 43.546875 
Q 18.109375 38.921875 18.109375 30.90625 
L 18.109375 0 
L 9.078125 0 
L 9.078125 75.984375 
L 18.109375 75.984375 
L 18.109375 46.1875 
Q 21.34375 51.125 25.703125 53.5625 
Q 30.078125 56 35.796875 56 
Q 45.21875 56 50.046875 50.171875 
Q 54.890625 44.34375 54.890625 33.015625 
z
" id="DejaVuSans-104"/>
     </defs>
     <g style="fill:#ffffff;" transform="translate(601.265625 59.798437)scale(0.1 -0.1)">
      <use xlink:href="#DejaVuSans-72"/>
      <use x="75.195312" xlink:href="#DejaVuSans-105"/>
      <use x="102.978516" xlink:href="#DejaVuSans-103"/>
      <use x="166.455078" xlink:href="#DejaVuSans-104"/>
     </g>
    </g>
    <g id="line2d_24">
     <path d="M 573.265625 70.976562 
L 593.265625 70.976562 
" style="fill:none;stroke:#feffb3;stroke-linecap:square;stroke-width:1.5;"/>
    </g>
    <g id="line2d_25"/>
    <g id="text_22">
     <!-- 300 MA -->
     <defs>
      <path d="M 40.578125 39.3125 
Q 47.65625 37.796875 51.625 33 
Q 55.609375 28.21875 55.609375 21.1875 
Q 55.609375 10.40625 48.1875 4.484375 
Q 40.765625 -1.421875 27.09375 -1.421875 
Q 22.515625 -1.421875 17.65625 -0.515625 
Q 12.796875 0.390625 7.625 2.203125 
L 7.625 11.71875 
Q 11.71875 9.328125 16.59375 8.109375 
Q 21.484375 6.890625 26.8125 6.890625 
Q 36.078125 6.890625 40.9375 10.546875 
Q 45.796875 14.203125 45.796875 21.1875 
Q 45.796875 27.640625 41.28125 31.265625 
Q 36.765625 34.90625 28.71875 34.90625 
L 20.21875 34.90625 
L 20.21875 43.015625 
L 29.109375 43.015625 
Q 36.375 43.015625 40.234375 45.921875 
Q 44.09375 48.828125 44.09375 54.296875 
Q 44.09375 59.90625 40.109375 62.90625 
Q 36.140625 65.921875 28.71875 65.921875 
Q 24.65625 65.921875 20.015625 65.03125 
Q 15.375 64.15625 9.8125 62.3125 
L 9.8125 71.09375 
Q 15.4375 72.65625 20.34375 73.4375 
Q 25.25 74.21875 29.59375 74.21875 
Q 40.828125 74.21875 47.359375 69.109375 
Q 53.90625 64.015625 53.90625 55.328125 
Q 53.90625 49.265625 50.4375 45.09375 
Q 46.96875 40.921875 40.578125 39.3125 
z
" id="DejaVuSans-51"/>
      <path id="DejaVuSans-32"/>
      <path d="M 9.8125 72.90625 
L 24.515625 72.90625 
L 43.109375 23.296875 
L 61.8125 72.90625 
L 76.515625 72.90625 
L 76.515625 0 
L 66.890625 0 
L 66.890625 64.015625 
L 48.09375 14.015625 
L 38.1875 14.015625 
L 19.390625 64.015625 
L 19.390625 0 
L 9.8125 0 
z
" id="DejaVuSans-77"/>
      <path d="M 34.1875 63.1875 
L 20.796875 26.90625 
L 47.609375 26.90625 
z
M 28.609375 72.90625 
L 39.796875 72.90625 
L 67.578125 0 
L 57.328125 0 
L 50.6875 18.703125 
L 17.828125 18.703125 
L 11.1875 0 
L 0.78125 0 
z
" id="DejaVuSans-65"/>
     </defs>
     <g style="fill:#ffffff;" transform="translate(601.265625 74.476562)scale(0.1 -0.1)">
      <use xlink:href="#DejaVuSans-51"/>
      <use x="63.623047" xlink:href="#DejaVuSans-48"/>
      <use x="127.246094" xlink:href="#DejaVuSans-48"/>
      <use x="190.869141" xlink:href="#DejaVuSans-32"/>
      <use x="222.65625" xlink:href="#DejaVuSans-77"/>
      <use x="308.935547" xlink:href="#DejaVuSans-65"/>
     </g>
    </g>
   </g>
  </g>
 </g>
 <defs>
  <clipPath id="pc1a25a72d0">
   <rect height="244.8" width="558" x="90" y="43.2"/>
  </clipPath>
 </defs>
</svg>
